<svg id="visual" viewBox="0 0 900 600" width="900" height="600" xmlns="http://www.w3.org/2000/svg" xmlns:xlink="http://www.w3.org/1999/xlink" version="1.1"><rect x="0" y="0" width="900" height="600" fill="#002233"></rect><path d="M0 104L8.3 120.2C16.7 136.3 33.3 168.7 50 173.7C66.7 178.7 83.3 156.3 100 180.5C116.7 204.7 133.3 275.3 150 277.5C166.7 279.7 183.3 213.3 200 179.8C216.7 146.3 233.3 145.7 250 173.7C266.7 201.7 283.3 258.3 300 289.8C316.7 321.3 333.3 327.7 350 318.7C366.7 309.7 383.3 285.3 400 291.8C416.7 298.3 433.3 335.7 450 330.8C466.7 326 483.3 279 500 263C516.7 247 533.3 262 550 242.3C566.7 222.7 583.3 168.3 600 176.2C616.7 184 633.3 254 650 295.7C666.7 337.3 683.3 350.7 700 348.7C716.7 346.7 733.3 329.3 750 297C766.7 264.7 783.3 217.3 800 177.7C816.7 138 833.3 106 850 105.3C866.7 104.7 883.3 135.3 891.7 150.7L900 166L900 0L891.7 0C883.3 0 866.7 0 850 0C833.3 0 816.7 0 800 0C783.3 0 766.7 0 750 0C733.3 0 716.7 0 700 0C683.3 0 666.7 0 650 0C633.3 0 616.7 0 600 0C583.3 0 566.7 0 550 0C533.3 0 516.7 0 500 0C483.3 0 466.7 0 450 0C433.3 0 416.7 0 400 0C383.3 0 366.7 0 350 0C333.3 0 316.7 0 300 0C283.3 0 266.7 0 250 0C233.3 0 216.7 0 200 0C183.3 0 166.7 0 150 0C133.3 0 116.7 0 100 0C83.3 0 66.7 0 50 0C33.3 0 16.7 0 8.3 0L0 0Z" fill="#0066FF" stroke-linecap="round" stroke-linejoin="miter"></path></svg>